<svg width="278" height="376" viewBox="0 0 278 376" fill="none" xmlns="http://www.w3.org/2000/svg">
<path fill-rule="evenodd" clip-rule="evenodd" d="M232.714 69.5078H137.146V188.657H232.714V69.5078ZM204.168 99.2951H165.693V160.111H204.168V99.2951Z" fill="white"/>
<path d="M44.0594 0H1.24023L3.10194 122.252H91.8431V188.032H132.801V0H90.602V80.6738H44.0594V0Z" fill="white"/>
<path d="M83.1552 129.078H3.10194L3.10284 171.897H40.336V333H83.1552V129.078Z" fill="white"/>
<path d="M91.2235 308.422V193.617H232.092V232.713H130.94V268.706H232.092V375.444H0V336.968H192.997V308.422H91.2235Z" fill="white"/>
<path d="M277.358 231.518L273.565 232.782L273.565 241.18L277.358 242.445L277.358 246.93L256.287 239.555L256.287 234.408L277.358 227.003L277.358 231.518ZM269.682 239.856L269.682 234.077L261.073 236.966L269.682 239.856Z" fill="white"/>
<path d="M256.287 269.086L256.287 264.932L277.358 264.932L277.358 269.086L256.287 269.086Z" fill="white"/>
<path d="M256.287 297.234C256.287 294.344 257.301 291.936 259.327 290.009C261.354 288.063 263.852 287.09 266.822 287.09C269.792 287.09 272.291 288.063 274.318 290.009C276.344 291.936 277.358 294.344 277.358 297.234L277.358 305.602L256.287 305.602L256.287 297.234ZM273.384 297.234C273.384 295.407 272.782 293.922 271.578 292.779C270.354 291.635 268.769 291.063 266.822 291.063C264.876 291.063 263.301 291.635 262.097 292.779C260.872 293.922 260.26 295.407 260.26 297.234L260.26 301.448L273.384 301.448L273.384 297.234Z" fill="white"/>
<path d="M273.384 332.479L273.384 323.599L277.358 323.599L277.358 336.633L256.287 336.633L256.287 323.75L260.26 323.75L260.26 332.479L264.745 332.479L264.745 324.502L268.659 324.502L268.659 332.479L273.384 332.479Z" fill="white"/>
<path d="M256.287 354.631L277.358 354.631L277.358 358.755L263.692 358.755L273.475 364.685L273.475 365.166L263.722 371.096L277.358 371.096L277.358 375.25L256.287 375.25L256.287 370.976L266.251 364.925L256.287 358.905L256.287 354.631Z" fill="white"/>
</svg>
